<svg width="202" height="202" viewBox="0 0 202 202" fill="none" xmlns="http://www.w3.org/2000/svg">
<rect width="202" height="202" rx="30" fill="url(#paint0_linear_18_2)"/>
<path d="M44.2 141V61.305H98.02V76.37H62.14V92.01H93.995V106.73H62.14V125.935H100.665V141H44.2ZM107.156 162.275C106.083 162.275 104.511 162.16 102.441 161.93C100.295 161.7 98.3012 161.278 96.4612 160.665L98.7612 146.75C99.9112 147.133 100.985 147.402 101.981 147.555C102.901 147.708 104.09 147.785 105.546 147.785C108.23 147.785 110.108 146.98 111.181 145.37C112.255 143.76 112.791 141.422 112.791 138.355V80.51H129.926V138.815C129.926 146.788 127.971 152.692 124.061 156.525C120.151 160.358 114.516 162.275 107.156 162.275ZM131.536 63.03C131.536 66.1733 130.501 68.665 128.431 70.505C126.438 72.2683 124.061 73.15 121.301 73.15C118.541 73.15 116.126 72.2683 114.056 70.505C112.063 68.665 111.066 66.1733 111.066 63.03C111.066 59.8867 112.063 57.4333 114.056 55.67C116.126 53.83 118.541 52.91 121.301 52.91C124.061 52.91 126.438 53.83 128.431 55.67C130.501 57.4333 131.536 59.8867 131.536 63.03Z" fill="white"/>
<path d="M162.823 131.915C162.823 135.365 161.712 138.01 159.488 139.85C157.342 141.613 154.888 142.495 152.128 142.495C149.368 142.495 146.877 141.613 144.653 139.85C142.507 138.01 141.433 135.365 141.433 131.915C141.433 128.465 142.507 125.858 144.653 124.095C146.877 122.255 149.368 121.335 152.128 121.335C154.888 121.335 157.342 122.255 159.488 124.095C161.712 125.858 162.823 128.465 162.823 131.915Z" fill="#3369E7"/>
<defs>
<linearGradient id="paint0_linear_18_2" x1="101" y1="0" x2="101" y2="202" gradientUnits="userSpaceOnUse">
<stop stop-color="#080F1E"/>
<stop offset="1" stop-color="#020817"/>
</linearGradient>
</defs>
</svg>
